<svg width="1480" height="1480" viewBox="0 0 101 117" version="1.1" xmlns="http://www.w3.org/2000/svg" xmlns:xlink="http://www.w3.org/1999/xlink" x="10" y="10"><g id="Page-1" stroke="none" stroke-width="1" fill="none" fill-rule="evenodd"><g id="trust-logo-copy" fill="#3375BB" fill-rule="nonzero"><path d="M52.861,0.9042 C68.51605,13.123385 86.29017,13.640755 94.1226659,13.6283349 L96.253,13.6198 C97.401,13.6198 98.501,14.0842 99.307,14.9089 C100.112,15.7336 100.555,16.8494 100.538496,18.0061 L100.485048,20.9689889 C100.115105,40.1349267 99.2315323,54.2649677 97.59,64.963 C95.863,76.213 93.251,84.005 89.242,89.979 C85.205,95.995 80.014,99.763 74.006,103.385 C72.668,104.191667 71.3046667,104.983667 69.9020741,105.788556 L64.9072112,108.644707 C61.2029149,110.776583 57.17,113.171375 52.61,116.228 C51.173,117.192 49.301,117.192 47.863,116.228 C42.112,112.373 37.202,109.571 32.734,107.021 C30.559,105.78 28.488,104.599 26.476,103.384 C20.472,99.761 15.29,95.993 11.261,89.975 C7.34610638,84.1281064 4.76844047,76.5397515 3.04799271,65.6742797 L2.937,64.961 C1.218,53.72 0.335,38.6885 0.000413088673,18.0061 C-0.018,16.8494 0.425,15.7336 1.23,14.9089 C2.036,14.0842 3.136,13.6198 4.284,13.6198 L6.90198737,13.6283244 C14.9284197,13.6139148 32.28567,12.867069 47.613,0.9042 C49.158,-0.3014 51.316,-0.3014 52.861,0.9042 Z M50.074093,4.05745566 C47.2398182,6.2695864 44.2549967,8.19114077 41.135939,9.83901811 C34.4204037,13.3870058 27.3025953,15.5735911 19.9002952,16.7002683 C15.057981,17.4372993 11.2778068,17.6353517 6.15801142,17.627102 L4.284,17.6198 C4.21428952,17.6198 4.14512178,17.6489973 4.09240835,17.7029326 C4.03290303,17.7638942 3.99844589,17.8506866 3.99976629,17.941399 L4.05052247,20.807668 C4.4243246,40.2765526 5.31737756,54.0657792 6.89103786,64.3563641 C8.52607407,75.0487404 10.9471096,82.316721 14.5848612,87.7497031 C17.6868263,92.3830179 21.5334379,95.6770019 27.9988488,99.6289994 L28.5437352,99.9598985 C28.9483643,100.204245 29.3654703,100.45324 29.8015396,100.710888 L32.5144121,102.288 L37.595742,105.197507 C42.7825283,108.188087 45.942434,110.125091 50.0903246,112.905497 C50.1806486,112.966048 50.2924139,112.966048 50.3828199,112.9054 L51.6445141,112.065684 C55.4924303,109.524214 58.7146954,107.584642 64.0084627,104.549976 L69.3743549,101.475228 L70.7088727,100.694083 C70.9932947,100.526147 71.2697101,100.361876 71.5399213,100.200159 L71.9408104,99.9593625 C78.7454108,95.8571218 82.7263575,92.5101409 85.9205716,87.7500735 C89.4876319,82.4346286 91.8887825,75.3635226 93.5281094,65.0488004 L93.6362736,64.3563305 C95.2928074,53.5605318 96.1987631,38.9187132 96.538101,17.9456862 C96.539396,17.8522169 96.5044588,17.7642649 96.4463261,17.7047084 C96.3918782,17.6489973 96.3227105,17.6198 96.253,17.6198 L95.2970593,17.6235392 C88.2452148,17.6624295 83.2630024,17.3562192 76.7750678,16.0196989 C67.4644713,14.1017078 58.7797253,10.4317269 51.026438,4.53998998 L50.4002383,4.05771424 C50.3016224,3.98076192 50.1723776,3.98076192 50.074093,4.05745566 Z" id="Shape-Copy"/></g></g></svg>